<svg width="487" height="146" viewBox="0 0 487 146" fill="none" xmlns="http://www.w3.org/2000/svg">
<mask id="mask0_1483_101" style="mask-type:luminance" maskUnits="userSpaceOnUse" x="0" y="0" width="487" height="146">
<path d="M486.231 0H0V145.869H486.231V0Z" fill="white"/>
</mask>
<g mask="url(#mask0_1483_101)">
<path d="M105.684 4.7207C96.9036 4.7207 89.5867 6.44214 83.7333 9.89407C80.1284 12.0142 76.1933 15.6564 71.9192 20.8297V7.06729H34.7729V110.236C33.1757 111.858 31.8462 112.528 30.8736 112.646C29.6154 112.8 28.4019 112.292 26.8136 110.562C23.637 107.092 20.2641 99.0011 17.4534 88.9352C11.8409 68.7853 7.83445 40.6444 4.73818 22.1706C4.56864 21.0291 3.6228 20.1683 2.48959 20.123C0.954835 20.0506 -0.249766 21.4549 0.0357692 22.9951C3.11419 41.342 7.10276 69.5645 12.8759 90.2671C15.758 100.614 18.9257 109.076 23.3337 113.887C25.5376 116.297 28.3841 117.864 31.4625 117.484C32.6938 117.33 33.8717 116.904 35.0138 116.234H71.9282V57.7591C71.9282 50.076 73.6592 44.4315 77.1035 40.8256C80.9314 36.83 85.6606 34.8277 91.2821 34.8277C97.43 34.8277 102.052 37.1381 105.122 41.7678C107.227 44.9027 108.271 51.2901 108.271 60.9392V116.215H145.186V46.7056C145.186 32.2818 141.17 21.4549 133.14 14.243C126.091 7.89177 116.936 4.7207 105.675 4.7207H105.684ZM32.0782 7.54748C30.5166 7.94613 28.973 8.39008 27.4382 8.86121L31.7569 97.9139L32.0782 7.54748ZM24.5383 9.83065C22.9767 10.3743 21.4241 10.9632 19.8894 11.5883L29.776 101.737L24.5383 9.82159V9.83065ZM17.15 12.748C15.6064 13.4276 14.0716 14.1433 12.5547 14.8862L26.3496 102.933L17.15 12.739V12.748ZM10.44 15.9553C8.92305 16.7436 7.40614 17.5499 5.90709 18.3925L22.8072 101.873L10.44 15.9463V15.9553Z" fill="white"/>
<path d="M225.726 36.3779V83.8352C225.726 87.9576 225.548 91.4548 225.209 94.345C224.861 97.2262 224.085 100.153 222.871 103.115C220.846 108.098 217.508 111.985 212.851 114.767C208.193 117.548 202.527 118.934 195.852 118.934C189.82 118.934 184.788 117.965 180.764 116.026C176.739 114.087 173.491 110.961 171.02 106.631C169.726 104.32 168.673 101.666 167.861 98.6577C167.049 95.6497 166.647 92.7867 166.647 90.0686C166.647 87.1875 167.433 84.9858 169.012 83.4547C170.591 81.9325 172.617 81.1715 175.08 81.1715C177.542 81.1715 179.265 81.8691 180.487 83.2735C181.701 84.6778 182.637 86.8613 183.28 89.824C183.967 92.995 184.654 95.5319 185.341 97.4255C186.028 99.3191 187.179 100.95 188.803 102.309C190.418 103.668 192.729 104.347 195.727 104.347C203.705 104.347 207.684 98.3949 207.684 86.4898V36.3779C207.684 32.6723 208.478 29.8908 210.084 28.0334C211.682 26.1761 213.859 25.252 216.616 25.252C219.373 25.252 221.622 26.1761 223.264 28.0334C224.906 29.8908 225.726 32.6723 225.726 36.3779Z" fill="white"/>
<path d="M303.916 40.9535H263.298V63.1963H300.695C303.443 63.1963 305.504 63.8214 306.86 65.0808C308.217 66.3402 308.895 67.9982 308.895 70.0549C308.895 72.1115 308.226 73.7967 306.887 75.0923C305.549 76.3879 303.488 77.0403 300.695 77.0403H263.298V102.807H305.308C308.136 102.807 310.278 103.478 311.715 104.819C313.151 106.16 313.874 107.936 313.874 110.164C313.874 112.393 313.151 114.051 311.715 115.383C310.278 116.724 308.145 117.394 305.308 117.394H256.312C252.386 117.394 249.566 116.506 247.844 114.74C246.122 112.973 245.265 110.101 245.265 106.151V38.0542C245.265 35.4177 245.649 33.2614 246.416 31.5943C247.184 29.9273 248.388 28.7132 250.03 27.9521C251.672 27.1911 253.76 26.8105 256.312 26.8105H303.907C306.78 26.8105 308.913 27.4629 310.314 28.7585C311.706 30.0541 312.411 31.7574 312.411 33.8594C312.411 35.9613 311.715 37.719 310.314 39.0146C308.913 40.3102 306.78 40.9626 303.907 40.9626L303.916 40.9535Z" fill="white"/>
<path d="M352.422 78.6439H346.114V107.745C346.114 111.578 345.284 114.395 343.624 116.208C341.965 118.02 339.796 118.926 337.128 118.926C334.255 118.926 332.025 117.974 330.445 116.081C328.866 114.187 328.081 111.406 328.081 107.736V38.0543C328.081 34.104 328.955 31.241 330.695 29.4652C332.435 27.6984 335.246 26.8105 339.136 26.8105H368.457C372.508 26.8105 375.961 26.9918 378.834 27.336C381.708 27.6894 384.295 28.3961 386.606 29.4652C389.399 30.6611 391.871 32.3735 394.012 34.5933C396.154 36.813 397.787 39.4042 398.902 42.3488C400.018 45.2934 400.571 48.4101 400.571 51.708C400.571 58.4669 398.697 63.8577 394.958 67.8985C391.211 71.9394 385.536 74.8024 377.933 76.4876C381.128 78.2181 384.188 80.7731 387.097 84.1525C390.015 87.532 392.612 91.1198 394.896 94.9342C397.18 98.7485 398.965 102.182 400.241 105.254C401.517 108.325 402.15 110.436 402.15 111.587C402.15 112.737 401.775 113.97 401.026 115.138C400.276 116.307 399.259 117.24 397.965 117.92C396.671 118.599 395.172 118.935 393.477 118.935C391.452 118.935 389.756 118.445 388.373 117.485C386.999 116.516 385.812 115.292 384.822 113.807C383.831 112.321 382.484 110.137 380.789 107.256L373.561 95.0248C370.973 90.54 368.653 87.1152 366.61 84.7686C364.567 82.422 362.488 80.8184 360.391 79.9486C358.285 79.0879 355.635 78.653 352.44 78.653L352.422 78.6439ZM362.746 40.582H346.114V65.4795H362.264C366.592 65.4795 370.242 65.0989 373.195 64.3379C376.149 63.5768 378.406 62.2812 379.968 60.442C381.529 58.6118 382.305 56.084 382.305 52.8767C382.305 50.3671 381.681 48.1473 380.423 46.2356C379.165 44.3239 377.425 42.8924 375.203 41.9411C373.097 41.0351 368.948 40.582 362.755 40.582H362.746Z" fill="white"/>
<path d="M476.274 40.9535H435.657V63.1963H473.053C475.801 63.1963 477.862 63.8214 479.219 65.0808C480.575 66.3402 481.253 67.9982 481.253 70.0549C481.253 72.1115 480.584 73.7967 479.245 75.0923C477.907 76.3879 475.846 77.0403 473.053 77.0403H435.657V102.807H477.666C480.495 102.807 482.636 103.478 484.073 104.819C485.509 106.16 486.232 107.936 486.232 110.164C486.232 112.393 485.509 114.051 484.073 115.383C482.636 116.724 480.503 117.394 477.666 117.394H428.67C424.744 117.394 421.924 116.506 420.202 114.74C418.48 112.973 417.623 110.101 417.623 106.151V38.0542C417.623 35.4177 418.007 33.2614 418.774 31.5943C419.542 29.9273 420.746 28.7132 422.388 27.9521C424.03 27.1911 426.118 26.8105 428.67 26.8105H476.265C479.138 26.8105 481.271 27.4629 482.672 28.7585C484.064 30.0541 484.769 31.7574 484.769 33.8594C484.769 35.9613 484.073 37.719 482.672 39.0146C481.271 40.3102 479.138 40.9626 476.265 40.9626L476.274 40.9535Z" fill="white"/>
<path d="M391.192 141.539C391.192 142.364 390.987 143.107 390.567 143.768C390.148 144.43 389.541 144.937 388.729 145.318C387.926 145.689 386.971 145.879 385.865 145.879C384.535 145.879 383.447 145.626 382.59 145.118C381.983 144.756 381.484 144.267 381.1 143.65C380.716 143.043 380.529 142.445 380.529 141.866C380.529 141.53 380.645 141.24 380.877 141.005C381.1 140.769 381.394 140.643 381.751 140.643C382.037 140.643 382.278 140.733 382.474 140.923C382.67 141.114 382.84 141.385 382.983 141.748C383.152 142.183 383.34 142.545 383.536 142.835C383.732 143.125 384.009 143.37 384.375 143.56C384.732 143.75 385.204 143.841 385.793 143.841C386.596 143.841 387.248 143.65 387.756 143.27C388.256 142.889 388.515 142.409 388.515 141.838C388.515 141.385 388.381 141.014 388.104 140.733C387.837 140.452 387.48 140.235 387.051 140.081C386.623 139.927 386.043 139.773 385.329 139.601C384.366 139.374 383.563 139.102 382.911 138.794C382.26 138.486 381.742 138.069 381.368 137.535C380.984 137 380.797 136.339 380.797 135.56C380.797 134.781 381.002 134.137 381.403 133.557C381.805 132.969 382.385 132.525 383.152 132.207C383.92 131.89 384.812 131.736 385.847 131.736C386.668 131.736 387.382 131.836 387.979 132.044C388.577 132.253 389.077 132.534 389.479 132.869C389.88 133.213 390.166 133.576 390.344 133.956C390.523 134.337 390.621 134.708 390.621 135.061C390.621 135.388 390.505 135.687 390.273 135.949C390.05 136.212 389.755 136.348 389.416 136.348C389.104 136.348 388.863 136.266 388.702 136.112C388.542 135.958 388.363 135.696 388.176 135.333C387.935 134.817 387.64 134.418 387.301 134.128C386.962 133.838 386.409 133.693 385.651 133.693C384.946 133.693 384.384 133.847 383.955 134.164C383.527 134.482 383.313 134.853 383.313 135.297C383.313 135.569 383.384 135.804 383.536 136.004C383.679 136.203 383.884 136.375 384.143 136.511C384.401 136.656 384.66 136.765 384.919 136.846C385.178 136.928 385.615 137.046 386.222 137.2C386.98 137.381 387.667 137.58 388.274 137.798C388.89 138.015 389.407 138.278 389.835 138.595C390.264 138.903 390.603 139.302 390.844 139.773C391.085 140.253 391.21 140.833 391.21 141.521L391.192 141.539Z" fill="white"/>
<path d="M402.283 142.718C402.283 143.035 402.193 143.37 402.006 143.733C401.819 144.095 401.533 144.439 401.149 144.756C400.766 145.082 400.284 145.345 399.704 145.545C399.124 145.744 398.472 145.844 397.741 145.844C396.197 145.844 394.993 145.381 394.127 144.466C393.261 143.551 392.824 142.319 392.824 140.779C392.824 139.737 393.021 138.813 393.422 138.016C393.824 137.218 394.395 136.593 395.144 136.158C395.894 135.723 396.795 135.506 397.839 135.506C398.49 135.506 399.079 135.606 399.624 135.796C400.159 135.986 400.623 136.24 400.998 136.539C401.372 136.847 401.658 137.164 401.863 137.508C402.06 137.852 402.158 138.17 402.158 138.469C402.158 138.768 402.051 139.03 401.827 139.239C401.604 139.447 401.337 139.556 401.016 139.556C400.81 139.556 400.641 139.501 400.498 139.393C400.355 139.284 400.204 139.112 400.034 138.867C399.731 138.396 399.409 138.043 399.079 137.807C398.749 137.572 398.321 137.454 397.812 137.454C397.072 137.454 396.483 137.744 396.028 138.333C395.572 138.922 395.349 139.728 395.349 140.743C395.349 141.223 395.403 141.658 395.519 142.056C395.635 142.455 395.804 142.799 396.028 143.08C396.251 143.361 396.509 143.579 396.822 143.723C397.134 143.868 397.473 143.941 397.848 143.941C398.348 143.941 398.776 143.823 399.133 143.588C399.49 143.352 399.802 142.99 400.079 142.509C400.23 142.219 400.4 142.002 400.578 141.839C400.757 141.676 400.971 141.594 401.23 141.594C401.533 141.594 401.792 141.712 401.988 141.948C402.193 142.183 402.292 142.437 402.292 142.7L402.283 142.718Z" fill="white"/>
<path d="M406.442 133.294V137.072C406.754 136.701 407.067 136.402 407.37 136.184C407.674 135.967 408.004 135.804 408.378 135.695C408.744 135.586 409.137 135.532 409.556 135.532C410.19 135.532 410.752 135.668 411.243 135.94C411.734 136.212 412.117 136.61 412.403 137.136C412.581 137.444 412.697 137.779 412.76 138.159C412.822 138.531 412.849 138.966 412.849 139.455V144.329C412.849 144.837 412.733 145.226 412.501 145.489C412.269 145.752 411.965 145.879 411.591 145.879C410.77 145.879 410.35 145.362 410.35 144.329V140.035C410.35 139.22 410.234 138.594 409.994 138.159C409.753 137.725 409.306 137.507 408.637 137.507C408.191 137.507 407.79 137.634 407.433 137.897C407.076 138.15 406.808 138.504 406.63 138.957C406.496 139.337 406.424 140.008 406.424 140.977V144.339C406.424 144.846 406.317 145.226 406.085 145.489C405.862 145.752 405.55 145.888 405.157 145.888C404.336 145.888 403.917 145.371 403.917 144.339V133.303C403.917 132.787 404.024 132.397 404.238 132.144C404.452 131.89 404.756 131.754 405.148 131.754C405.541 131.754 405.853 131.89 406.076 132.144C406.299 132.406 406.415 132.787 406.415 133.303L406.442 133.294Z" fill="white"/>
<path d="M424.673 140.697C424.673 141.458 424.557 142.156 424.325 142.79C424.093 143.433 423.753 143.977 423.316 144.439C422.879 144.901 422.353 145.254 421.737 145.499C421.13 145.743 420.443 145.87 419.676 145.87C418.908 145.87 418.239 145.743 417.632 145.499C417.026 145.254 416.508 144.892 416.062 144.43C415.625 143.968 415.286 143.424 415.054 142.79C414.822 142.165 414.706 141.467 414.706 140.697C414.706 139.927 414.822 139.22 415.054 138.586C415.286 137.943 415.616 137.399 416.053 136.946C416.481 136.493 417.017 136.14 417.632 135.895C418.248 135.65 418.926 135.523 419.676 135.523C420.425 135.523 421.121 135.65 421.737 135.895C422.353 136.14 422.879 136.502 423.325 136.955C423.762 137.417 424.101 137.961 424.333 138.595C424.557 139.229 424.681 139.927 424.681 140.697H424.673ZM422.165 140.697C422.165 139.655 421.942 138.849 421.496 138.278C421.05 137.707 420.443 137.408 419.685 137.408C419.194 137.408 418.766 137.535 418.391 137.798C418.016 138.051 417.73 138.441 417.525 138.939C417.32 139.437 417.222 140.026 417.222 140.697C417.222 141.367 417.32 141.947 417.516 142.436C417.713 142.935 417.998 143.315 418.364 143.578C418.73 143.841 419.167 143.977 419.667 143.977C420.425 143.977 421.023 143.687 421.478 143.107C421.924 142.527 422.147 141.721 422.147 140.697H422.165Z" fill="white"/>
<path d="M435.995 140.697C435.995 141.458 435.879 142.156 435.647 142.79C435.415 143.433 435.075 143.977 434.638 144.439C434.201 144.901 433.675 145.254 433.059 145.499C432.452 145.743 431.765 145.87 430.998 145.87C430.23 145.87 429.561 145.743 428.954 145.499C428.348 145.254 427.83 144.892 427.384 144.43C426.938 143.968 426.608 143.424 426.376 142.79C426.144 142.165 426.028 141.467 426.028 140.697C426.028 139.927 426.144 139.22 426.376 138.586C426.608 137.943 426.938 137.399 427.375 136.946C427.803 136.493 428.339 136.14 428.954 135.895C429.57 135.65 430.248 135.523 430.998 135.523C431.747 135.523 432.443 135.65 433.059 135.895C433.675 136.14 434.201 136.502 434.647 136.955C435.084 137.417 435.423 137.961 435.655 138.595C435.879 139.229 436.003 139.927 436.003 140.697H435.995ZM433.487 140.697C433.487 139.655 433.264 138.849 432.818 138.278C432.372 137.707 431.765 137.408 431.007 137.408C430.516 137.408 430.088 137.535 429.713 137.798C429.338 138.051 429.052 138.441 428.847 138.939C428.642 139.437 428.544 140.026 428.544 140.697C428.544 141.367 428.642 141.947 428.838 142.436C429.035 142.935 429.32 143.315 429.695 143.578C430.061 143.841 430.498 143.977 430.998 143.977C431.756 143.977 432.354 143.687 432.809 143.107C433.255 142.527 433.478 141.721 433.478 140.697H433.487Z" fill="white"/>
<path d="M437.968 144.321V133.286C437.968 132.778 438.075 132.389 438.307 132.126C438.53 131.863 438.833 131.736 439.208 131.736C439.583 131.736 439.895 131.863 440.127 132.126C440.359 132.38 440.475 132.769 440.475 133.286V144.321C440.475 144.837 440.359 145.227 440.118 145.481C439.877 145.734 439.583 145.87 439.208 145.87C438.833 145.87 438.548 145.734 438.316 145.472C438.084 145.209 437.968 144.819 437.968 144.321Z" fill="white"/>
<path d="M456.75 134.109H450.628V137.461H456.268C456.678 137.461 456.99 137.552 457.196 137.742C457.401 137.932 457.499 138.186 457.499 138.494C457.499 138.802 457.401 139.056 457.196 139.255C456.99 139.454 456.687 139.545 456.259 139.545H450.619V143.432H456.955C457.383 143.432 457.704 143.532 457.918 143.731C458.133 143.93 458.24 144.202 458.24 144.537C458.24 144.872 458.133 145.126 457.918 145.325C457.704 145.525 457.383 145.624 456.955 145.624H449.567C448.969 145.624 448.549 145.489 448.291 145.226C448.032 144.963 447.898 144.528 447.898 143.93V133.665C447.898 133.266 447.951 132.94 448.067 132.696C448.183 132.442 448.362 132.261 448.612 132.143C448.862 132.025 449.174 131.971 449.558 131.971H456.732C457.16 131.971 457.49 132.07 457.695 132.261C457.91 132.46 458.008 132.714 458.008 133.031C458.008 133.348 457.901 133.611 457.695 133.81C457.49 134.009 457.16 134.1 456.732 134.1L456.75 134.109Z" fill="white"/>
<path d="M464.067 139.79H463.112V144.175C463.112 144.755 462.987 145.18 462.738 145.452C462.488 145.724 462.158 145.86 461.756 145.86C461.328 145.86 460.989 145.715 460.748 145.434C460.507 145.144 460.391 144.727 460.391 144.175V133.665C460.391 133.067 460.525 132.641 460.783 132.369C461.042 132.107 461.471 131.971 462.059 131.971H466.485C467.092 131.971 467.618 131.998 468.047 132.052C468.475 132.107 468.868 132.215 469.216 132.369C469.635 132.551 470.01 132.804 470.331 133.139C470.652 133.475 470.902 133.864 471.063 134.308C471.232 134.752 471.313 135.223 471.313 135.722C471.313 136.736 471.036 137.552 470.465 138.159C469.903 138.766 469.046 139.201 467.895 139.454C468.377 139.717 468.841 140.098 469.278 140.614C469.715 141.121 470.108 141.665 470.456 142.236C470.804 142.807 471.072 143.332 471.259 143.794C471.455 144.256 471.545 144.573 471.545 144.746C471.545 144.918 471.491 145.108 471.375 145.28C471.259 145.452 471.107 145.597 470.911 145.697C470.715 145.797 470.492 145.851 470.233 145.851C469.929 145.851 469.671 145.778 469.466 145.633C469.26 145.489 469.082 145.307 468.93 145.081C468.778 144.854 468.573 144.528 468.323 144.093L467.235 142.245C466.842 141.565 466.494 141.049 466.191 140.696C465.887 140.342 465.566 140.098 465.254 139.971C464.933 139.835 464.54 139.772 464.058 139.772L464.067 139.79ZM465.62 134.045H463.112V137.805H465.548C466.2 137.805 466.753 137.751 467.199 137.633C467.645 137.516 467.984 137.325 468.216 137.044C468.448 136.764 468.573 136.392 468.573 135.903C468.573 135.522 468.475 135.187 468.288 134.897C468.1 134.607 467.833 134.39 467.502 134.245C467.181 134.109 466.557 134.036 465.629 134.036L465.62 134.045Z" fill="white"/>
<path d="M479.102 140.316H476.612V144.185C476.612 144.737 476.479 145.154 476.229 145.444C475.97 145.734 475.649 145.87 475.256 145.87C474.863 145.87 474.515 145.725 474.266 145.444C474.016 145.163 473.891 144.746 473.891 144.203V133.675C473.891 133.068 474.034 132.633 474.301 132.37C474.569 132.107 475.015 131.98 475.613 131.98H479.102C480.137 131.98 480.922 132.062 481.484 132.225C482.037 132.379 482.51 132.642 482.912 132.995C483.314 133.358 483.617 133.793 483.822 134.318C484.027 134.834 484.134 135.423 484.134 136.076C484.134 137.471 483.715 138.522 482.876 139.238C482.037 139.953 480.779 140.316 479.111 140.316H479.102ZM478.442 134.055H476.612V138.232H478.442C479.084 138.232 479.619 138.169 480.048 138.024C480.476 137.888 480.806 137.661 481.029 137.353C481.252 137.045 481.368 136.637 481.368 136.13C481.368 135.523 481.199 135.034 480.851 134.662C480.458 134.255 479.655 134.055 478.442 134.055Z" fill="white"/>
</g>
</svg>
